<?xml version="1.0" encoding="utf-8"?>
<!-- Generator: Adobe Illustrator 21.1.0, SVG Export Plug-In . SVG Version: 6.00 Build 0)  -->
<svg version="1.1"
	 id="Layer_1" xmlns:cc="http://creativecommons.org/ns#" xmlns:dc="http://purl.org/dc/elements/1.1/" xmlns:inkscape="http://www.inkscape.org/namespaces/inkscape" xmlns:rdf="http://www.w3.org/1999/02/22-rdf-syntax-ns#" xmlns:sodipodi="http://sodipodi.sourceforge.net/DTD/sodipodi-0.dtd" xmlns:svg="http://www.w3.org/2000/svg"
	 xmlns="http://www.w3.org/2000/svg" xmlns:xlink="http://www.w3.org/1999/xlink" x="0px" y="0px" viewBox="0 0 67 67"
	 style="enable-background:new 0 0 67 67;" xml:space="preserve">
<style type="text/css">
	.st0{fill:#F37A20;}
	.st1{fill:#FFFFFF;}
</style>
<g id="g3102">
	<path id="path5060" class="st0" d="M3,4v60h60V4L3,4z"/>
	<g id="g4534" transform="matrix(1.5807476,0,0,1.5807476,-1689.8384,-519.69899)">
		<rect id="rect6" x="1081.9" y="358.6" class="st1" width="11.7" height="2.5"/>
		
			<rect id="rect8" x="1098" y="335.6" transform="matrix(0.9853 -0.171 0.171 0.9853 -42.1924 193.0036)" class="st1" width="2.5" height="11.7"/>
		<polygon id="polygon10" class="st1" points="1082.2,354.4 1093.9,355.4 1093.7,357.9 1082,356.9 		"/>
		
			<rect id="rect12" x="1087.4" y="346" transform="matrix(0.2596 -0.9657 0.9657 0.2596 466.268 1311.8883)" class="st1" width="2.5" height="11.7"/>
		<polygon id="polygon14" class="st1" points="1086.1,343.4 1096.2,349.3 1094.9,351.5 1084.8,345.5 		"/>
		<polygon id="polygon16" class="st1" points="1092,337.9 1098.6,347.6 1096.6,349 1090,339.3 		"/>
		<polygon id="polygon18" class="st1" points="1078.3,365.1 1078.9,365.1 1097.6,365.1 1097.6,365.1 1097.6,364.5 1097.6,352.9 
			1095.6,352.9 1095.6,363.2 1080.2,363.2 1080.2,352.9 1078.2,352.9 1078.2,365.1 		"/>
	</g>
</g>
</svg>
